<svg xmlns="http://www.w3.org/2000/svg" xmlns:xlink="http://www.w3.org/1999/xlink" width="500" zoomAndPan="magnify" viewBox="0 0 375 374.999991" height="500" preserveAspectRatio="xMidYMid meet" version="1.0"><defs><g/><clipPath id="4091487d7a"><path d="M 89.5625 62.789062 L 285.3125 62.789062 L 285.3125 227 L 89.5625 227 Z M 89.5625 62.789062 " clip-rule="nonzero"/></clipPath><clipPath id="6d94d2b11f"><path d="M 112.734375 90.96875 C 110.074219 90.96875 108.746094 89.71875 108.746094 87.214844 C 108.746094 86.121094 109.097656 85.183594 109.800781 84.398438 C 110.503906 83.617188 111.480469 83.226562 112.734375 83.226562 L 151.882812 83.226562 C 152.972656 83.226562 153.910156 83.617188 154.695312 84.398438 C 155.476562 85.183594 155.867188 86.121094 155.867188 87.214844 C 155.867188 88.308594 155.476562 89.207031 154.695312 89.910156 C 153.910156 90.613281 152.972656 90.964844 151.882812 90.964844 L 112.734375 90.964844 Z M 96.558594 70.5625 L 195.722656 70.5625 L 94.679688 182.898438 C 93.898438 183.683594 93.546875 184.582031 93.628906 185.597656 C 93.703125 186.613281 94.132812 187.511719 94.917969 188.292969 C 96.007812 189.078125 96.871094 189.464844 97.496094 189.464844 C 98.589844 189.464844 99.609375 188.996094 100.542969 188.054688 L 207.449219 69.386719 C 208.539062 68.136719 208.695312 66.734375 207.917969 65.167969 C 207.449219 63.609375 206.277344 62.824219 204.402344 62.824219 L 96.558594 62.824219 C 95.464844 62.824219 94.566406 63.214844 93.863281 63.996094 C 93.15625 64.78125 92.804688 65.71875 92.804688 66.808594 C 92.804688 69.3125 94.054688 70.5625 96.558594 70.5625 Z M 206.632812 103.285156 L 206.632812 223.441406 C 206.632812 224.535156 206.285156 225.476562 205.582031 226.257812 C 204.878906 227.035156 203.773438 227.015625 200.90625 226.992188 L 93.976562 226.992188 C 92.105469 226.992188 90.933594 226.210938 90.460938 224.648438 C 89.679688 223.085938 89.839844 221.675781 90.933594 220.425781 L 198.902344 100.773438 L 198.902344 87.417969 C 198.902344 86.328125 199.253906 85.386719 199.953125 84.601562 C 200.65625 83.824219 201.632812 83.429688 202.886719 83.429688 L 233.363281 83.429688 C 237.582031 83.429688 241.605469 83.941406 245.4375 84.953125 C 249.265625 85.972656 252.585938 87.574219 255.402344 89.761719 C 258.214844 91.953125 260.476562 94.765625 262.199219 98.207031 C 263.917969 101.644531 264.78125 105.710938 264.78125 110.402344 C 264.78125 115.097656 263.960938 119.160156 262.316406 122.601562 C 260.675781 126.039062 258.410156 128.972656 255.519531 131.394531 C 252.625 133.820312 249.269531 135.613281 245.4375 136.789062 C 241.609375 137.964844 237.585938 138.550781 233.363281 138.550781 L 223.75 138.550781 C 221.25 138.550781 220 137.300781 220 134.796875 L 220 118.378906 C 220 115.878906 221.25 114.625 223.75 114.625 C 224.84375 114.625 225.78125 114.976562 226.566406 115.679688 C 227.34375 116.382812 227.738281 117.285156 227.738281 118.375 L 227.738281 130.808594 L 233.363281 130.808594 C 239.769531 130.808594 245.320312 129.164062 250.007812 125.878906 C 254.695312 122.597656 257.039062 117.4375 257.039062 110.402344 C 257.039062 106.808594 256.371094 103.796875 255.046875 101.375 C 253.714844 98.953125 252 96.960938 249.886719 95.394531 C 247.777344 93.835938 245.277344 92.742188 242.386719 92.109375 C 239.492188 91.488281 236.488281 91.171875 233.363281 91.171875 L 206.640625 91.171875 L 206.640625 101.757812 C 206.785156 102.257812 206.785156 102.769531 206.632812 103.285156 Z M 102.65625 219.25 L 198.902344 219.25 L 198.902344 112.441406 Z M 191.507812 199.667969 C 190.722656 198.964844 189.785156 198.613281 188.691406 198.613281 L 135.707031 198.613281 C 134.613281 198.613281 133.675781 198.964844 132.894531 199.667969 C 132.113281 200.371094 131.722656 201.273438 131.722656 202.363281 C 131.722656 203.617188 132.113281 204.589844 132.894531 205.296875 C 133.675781 206 134.613281 206.351562 135.707031 206.351562 L 188.691406 206.351562 C 189.785156 206.351562 190.722656 206 191.507812 205.296875 C 192.285156 204.59375 192.679688 203.617188 192.679688 202.363281 C 192.679688 201.273438 192.285156 200.375 191.507812 199.667969 Z M 282.359375 90.699219 C 280.484375 85.070312 277.707031 80.183594 274.035156 76.042969 C 270.363281 71.898438 265.828125 68.652344 260.441406 66.308594 C 255.050781 63.964844 248.914062 62.789062 242.035156 62.789062 L 223.515625 62.789062 C 222.421875 62.789062 221.480469 63.140625 220.703125 63.84375 C 219.917969 64.546875 219.53125 65.449219 219.53125 66.539062 C 219.53125 67.636719 219.917969 68.574219 220.703125 69.355469 C 221.480469 70.140625 222.421875 70.527344 223.515625 70.527344 L 242.035156 70.527344 C 247.664062 70.527344 252.703125 71.507812 257.15625 73.460938 C 261.613281 75.417969 265.324219 78.070312 268.292969 81.433594 C 271.261719 84.800781 273.527344 88.824219 275.089844 93.511719 C 276.648438 98.203125 277.433594 103.289062 277.433594 108.757812 C 277.433594 124.082031 272.664062 135.652344 263.132812 143.464844 C 259.066406 146.59375 255.046875 148.707031 251.058594 149.796875 C 247.074219 150.890625 244.0625 151.4375 242.035156 151.4375 L 223.75 151.4375 C 221.25 151.4375 220 152.691406 220 155.191406 L 220 205.617188 C 220 208.121094 221.25 209.371094 223.75 209.371094 C 224.84375 209.371094 225.78125 209.019531 226.566406 208.316406 C 227.34375 207.613281 227.738281 206.714844 227.738281 205.621094 L 227.738281 159.179688 L 242.035156 159.179688 C 245.160156 159.179688 249.105469 158.441406 253.875 156.953125 C 258.640625 155.472656 263.289062 152.929688 267.820312 149.332031 C 274.070312 144.488281 278.523438 138.425781 281.1875 131.152344 C 283.839844 123.882812 285.171875 116.421875 285.171875 108.757812 C 285.171875 102.347656 284.238281 96.328125 282.359375 90.699219 Z M 282.359375 90.699219 " clip-rule="nonzero"/></clipPath><linearGradient x1="-0.719999" gradientTransform="matrix(0.408323, 0, 0, 0.40848, 89.972643, 62.790588)" y1="201" x2="478.04998" gradientUnits="userSpaceOnUse" y2="201" id="1cd5cf144a"><stop stop-opacity="1" stop-color="rgb(77.999878%, 56.098938%, 23.498535%)" offset="0"/><stop stop-opacity="1" stop-color="rgb(78.086853%, 56.228638%, 23.625183%)" offset="0.0078125"/><stop stop-opacity="1" stop-color="rgb(78.28064%, 56.521606%, 23.910522%)" offset="0.015625"/><stop stop-opacity="1" stop-color="rgb(78.495789%, 56.846619%, 24.226379%)" offset="0.0234375"/><stop stop-opacity="1" stop-color="rgb(78.710938%, 57.170105%, 24.542236%)" offset="0.03125"/><stop stop-opacity="1" stop-color="rgb(78.926086%, 57.493591%, 24.858093%)" offset="0.0390625"/><stop stop-opacity="1" stop-color="rgb(79.141235%, 57.817078%, 25.17395%)" offset="0.046875"/><stop stop-opacity="1" stop-color="rgb(79.35791%, 58.140564%, 25.488281%)" offset="0.0546875"/><stop stop-opacity="1" stop-color="rgb(79.573059%, 58.46405%, 25.804138%)" offset="0.0625"/><stop stop-opacity="1" stop-color="rgb(79.788208%, 58.787537%, 26.119995%)" offset="0.0703125"/><stop stop-opacity="1" stop-color="rgb(80.003357%, 59.112549%, 26.435852%)" offset="0.078125"/><stop stop-opacity="1" stop-color="rgb(80.218506%, 59.436035%, 26.751709%)" offset="0.0859375"/><stop stop-opacity="1" stop-color="rgb(80.433655%, 59.759521%, 27.06604%)" offset="0.09375"/><stop stop-opacity="1" stop-color="rgb(80.65033%, 60.083008%, 27.381897%)" offset="0.101562"/><stop stop-opacity="1" stop-color="rgb(80.865479%, 60.406494%, 27.697754%)" offset="0.109375"/><stop stop-opacity="1" stop-color="rgb(81.080627%, 60.72998%, 28.013611%)" offset="0.117188"/><stop stop-opacity="1" stop-color="rgb(81.295776%, 61.053467%, 28.327942%)" offset="0.125"/><stop stop-opacity="1" stop-color="rgb(81.510925%, 61.376953%, 28.643799%)" offset="0.132812"/><stop stop-opacity="1" stop-color="rgb(81.726074%, 61.701965%, 28.959656%)" offset="0.140625"/><stop stop-opacity="1" stop-color="rgb(81.942749%, 62.025452%, 29.275513%)" offset="0.148437"/><stop stop-opacity="1" stop-color="rgb(82.157898%, 62.348938%, 29.59137%)" offset="0.15625"/><stop stop-opacity="1" stop-color="rgb(82.373047%, 62.672424%, 29.905701%)" offset="0.164063"/><stop stop-opacity="1" stop-color="rgb(82.588196%, 62.995911%, 30.221558%)" offset="0.171875"/><stop stop-opacity="1" stop-color="rgb(82.803345%, 63.319397%, 30.537415%)" offset="0.179688"/><stop stop-opacity="1" stop-color="rgb(83.018494%, 63.642883%, 30.853271%)" offset="0.1875"/><stop stop-opacity="1" stop-color="rgb(83.233643%, 63.96637%, 31.169128%)" offset="0.195312"/><stop stop-opacity="1" stop-color="rgb(83.450317%, 64.291382%, 31.483459%)" offset="0.203125"/><stop stop-opacity="1" stop-color="rgb(83.665466%, 64.614868%, 31.799316%)" offset="0.210938"/><stop stop-opacity="1" stop-color="rgb(83.880615%, 64.938354%, 32.115173%)" offset="0.21875"/><stop stop-opacity="1" stop-color="rgb(84.095764%, 65.261841%, 32.43103%)" offset="0.226562"/><stop stop-opacity="1" stop-color="rgb(84.310913%, 65.585327%, 32.745361%)" offset="0.234375"/><stop stop-opacity="1" stop-color="rgb(84.526062%, 65.908813%, 33.061218%)" offset="0.242187"/><stop stop-opacity="1" stop-color="rgb(84.742737%, 66.2323%, 33.377075%)" offset="0.25"/><stop stop-opacity="1" stop-color="rgb(84.957886%, 66.555786%, 33.692932%)" offset="0.257813"/><stop stop-opacity="1" stop-color="rgb(85.173035%, 66.880798%, 34.008789%)" offset="0.265625"/><stop stop-opacity="1" stop-color="rgb(85.388184%, 67.204285%, 34.32312%)" offset="0.273438"/><stop stop-opacity="1" stop-color="rgb(85.603333%, 67.527771%, 34.638977%)" offset="0.28125"/><stop stop-opacity="1" stop-color="rgb(85.818481%, 67.851257%, 34.954834%)" offset="0.289063"/><stop stop-opacity="1" stop-color="rgb(86.035156%, 68.174744%, 35.270691%)" offset="0.296875"/><stop stop-opacity="1" stop-color="rgb(86.250305%, 68.49823%, 35.586548%)" offset="0.304688"/><stop stop-opacity="1" stop-color="rgb(86.465454%, 68.821716%, 35.900879%)" offset="0.3125"/><stop stop-opacity="1" stop-color="rgb(86.680603%, 69.145203%, 36.216736%)" offset="0.320312"/><stop stop-opacity="1" stop-color="rgb(86.895752%, 69.470215%, 36.532593%)" offset="0.328125"/><stop stop-opacity="1" stop-color="rgb(87.110901%, 69.793701%, 36.84845%)" offset="0.335938"/><stop stop-opacity="1" stop-color="rgb(87.327576%, 70.117188%, 37.162781%)" offset="0.34375"/><stop stop-opacity="1" stop-color="rgb(87.542725%, 70.440674%, 37.478638%)" offset="0.351562"/><stop stop-opacity="1" stop-color="rgb(87.757874%, 70.76416%, 37.794495%)" offset="0.359375"/><stop stop-opacity="1" stop-color="rgb(87.973022%, 71.087646%, 38.110352%)" offset="0.367188"/><stop stop-opacity="1" stop-color="rgb(88.188171%, 71.411133%, 38.426208%)" offset="0.375"/><stop stop-opacity="1" stop-color="rgb(88.40332%, 71.734619%, 38.74054%)" offset="0.382812"/><stop stop-opacity="1" stop-color="rgb(88.619995%, 72.059631%, 39.056396%)" offset="0.390625"/><stop stop-opacity="1" stop-color="rgb(88.835144%, 72.383118%, 39.372253%)" offset="0.398438"/><stop stop-opacity="1" stop-color="rgb(89.050293%, 72.706604%, 39.68811%)" offset="0.40625"/><stop stop-opacity="1" stop-color="rgb(89.265442%, 73.03009%, 40.002441%)" offset="0.414063"/><stop stop-opacity="1" stop-color="rgb(89.480591%, 73.353577%, 40.318298%)" offset="0.421875"/><stop stop-opacity="1" stop-color="rgb(89.69574%, 73.677063%, 40.634155%)" offset="0.429688"/><stop stop-opacity="1" stop-color="rgb(89.912415%, 74.000549%, 40.950012%)" offset="0.4375"/><stop stop-opacity="1" stop-color="rgb(90.127563%, 74.324036%, 41.265869%)" offset="0.445313"/><stop stop-opacity="1" stop-color="rgb(90.342712%, 74.649048%, 41.5802%)" offset="0.453125"/><stop stop-opacity="1" stop-color="rgb(90.557861%, 74.972534%, 41.896057%)" offset="0.460938"/><stop stop-opacity="1" stop-color="rgb(90.77301%, 75.296021%, 42.211914%)" offset="0.46875"/><stop stop-opacity="1" stop-color="rgb(90.988159%, 75.619507%, 42.527771%)" offset="0.476562"/><stop stop-opacity="1" stop-color="rgb(91.204834%, 75.942993%, 42.843628%)" offset="0.484375"/><stop stop-opacity="1" stop-color="rgb(91.419983%, 76.266479%, 43.157959%)" offset="0.492188"/><stop stop-opacity="1" stop-color="rgb(91.635132%, 76.589966%, 43.473816%)" offset="0.5"/><stop stop-opacity="1" stop-color="rgb(91.850281%, 76.913452%, 43.789673%)" offset="0.507812"/><stop stop-opacity="1" stop-color="rgb(92.06543%, 77.238464%, 44.10553%)" offset="0.515625"/><stop stop-opacity="1" stop-color="rgb(92.280579%, 77.561951%, 44.419861%)" offset="0.523438"/><stop stop-opacity="1" stop-color="rgb(92.497253%, 77.885437%, 44.735718%)" offset="0.53125"/><stop stop-opacity="1" stop-color="rgb(92.712402%, 78.208923%, 45.051575%)" offset="0.539062"/><stop stop-opacity="1" stop-color="rgb(92.927551%, 78.53241%, 45.367432%)" offset="0.546875"/><stop stop-opacity="1" stop-color="rgb(93.1427%, 78.855896%, 45.683289%)" offset="0.554688"/><stop stop-opacity="1" stop-color="rgb(93.357849%, 79.179382%, 45.99762%)" offset="0.5625"/><stop stop-opacity="1" stop-color="rgb(93.572998%, 79.502869%, 46.313477%)" offset="0.570312"/><stop stop-opacity="1" stop-color="rgb(93.789673%, 79.827881%, 46.629333%)" offset="0.578125"/><stop stop-opacity="1" stop-color="rgb(94.004822%, 80.151367%, 46.94519%)" offset="0.585938"/><stop stop-opacity="1" stop-color="rgb(94.219971%, 80.474854%, 47.261047%)" offset="0.59375"/><stop stop-opacity="1" stop-color="rgb(94.43512%, 80.79834%, 47.575378%)" offset="0.601562"/><stop stop-opacity="1" stop-color="rgb(94.650269%, 81.121826%, 47.891235%)" offset="0.609375"/><stop stop-opacity="1" stop-color="rgb(94.865417%, 81.445312%, 48.207092%)" offset="0.617188"/><stop stop-opacity="1" stop-color="rgb(95.080566%, 81.768799%, 48.522949%)" offset="0.625"/><stop stop-opacity="1" stop-color="rgb(95.297241%, 82.093811%, 48.83728%)" offset="0.632812"/><stop stop-opacity="1" stop-color="rgb(95.51239%, 82.417297%, 49.153137%)" offset="0.640625"/><stop stop-opacity="1" stop-color="rgb(95.727539%, 82.740784%, 49.468994%)" offset="0.648438"/><stop stop-opacity="1" stop-color="rgb(95.942688%, 83.06427%, 49.784851%)" offset="0.65625"/><stop stop-opacity="1" stop-color="rgb(96.157837%, 83.387756%, 50.100708%)" offset="0.664062"/><stop stop-opacity="1" stop-color="rgb(96.372986%, 83.711243%, 50.415039%)" offset="0.671875"/><stop stop-opacity="1" stop-color="rgb(96.505737%, 83.976746%, 50.694275%)" offset="0.679688"/><stop stop-opacity="1" stop-color="rgb(96.549988%, 84.181213%, 50.933838%)" offset="0.6875"/><stop stop-opacity="1" stop-color="rgb(96.586609%, 84.381104%, 51.168823%)" offset="0.695312"/><stop stop-opacity="1" stop-color="rgb(96.621704%, 84.579468%, 51.403809%)" offset="0.703125"/><stop stop-opacity="1" stop-color="rgb(96.658325%, 84.779358%, 51.638794%)" offset="0.710938"/><stop stop-opacity="1" stop-color="rgb(96.69342%, 84.979248%, 51.873779%)" offset="0.71875"/><stop stop-opacity="1" stop-color="rgb(96.730042%, 85.177612%, 52.108765%)" offset="0.726562"/><stop stop-opacity="1" stop-color="rgb(96.766663%, 85.377502%, 52.34375%)" offset="0.734375"/><stop stop-opacity="1" stop-color="rgb(96.801758%, 85.575867%, 52.580261%)" offset="0.742188"/><stop stop-opacity="1" stop-color="rgb(96.838379%, 85.775757%, 52.815247%)" offset="0.75"/><stop stop-opacity="1" stop-color="rgb(96.873474%, 85.974121%, 53.050232%)" offset="0.757813"/><stop stop-opacity="1" stop-color="rgb(96.910095%, 86.174011%, 53.285217%)" offset="0.765625"/><stop stop-opacity="1" stop-color="rgb(96.946716%, 86.372375%, 53.520203%)" offset="0.773438"/><stop stop-opacity="1" stop-color="rgb(96.981812%, 86.572266%, 53.755188%)" offset="0.78125"/><stop stop-opacity="1" stop-color="rgb(97.018433%, 86.77063%, 53.990173%)" offset="0.789063"/><stop stop-opacity="1" stop-color="rgb(97.053528%, 86.97052%, 54.226685%)" offset="0.796875"/><stop stop-opacity="1" stop-color="rgb(97.090149%, 87.17041%, 54.46167%)" offset="0.804688"/><stop stop-opacity="1" stop-color="rgb(97.12677%, 87.368774%, 54.696655%)" offset="0.8125"/><stop stop-opacity="1" stop-color="rgb(97.161865%, 87.568665%, 54.931641%)" offset="0.820313"/><stop stop-opacity="1" stop-color="rgb(97.198486%, 87.767029%, 55.166626%)" offset="0.828125"/><stop stop-opacity="1" stop-color="rgb(97.233582%, 87.966919%, 55.401611%)" offset="0.835938"/><stop stop-opacity="1" stop-color="rgb(97.270203%, 88.165283%, 55.636597%)" offset="0.84375"/><stop stop-opacity="1" stop-color="rgb(97.306824%, 88.365173%, 55.873108%)" offset="0.851562"/><stop stop-opacity="1" stop-color="rgb(97.341919%, 88.563538%, 56.108093%)" offset="0.859375"/><stop stop-opacity="1" stop-color="rgb(97.37854%, 88.763428%, 56.343079%)" offset="0.867188"/><stop stop-opacity="1" stop-color="rgb(97.413635%, 88.963318%, 56.578064%)" offset="0.875"/><stop stop-opacity="1" stop-color="rgb(97.450256%, 89.161682%, 56.813049%)" offset="0.882812"/><stop stop-opacity="1" stop-color="rgb(97.485352%, 89.361572%, 57.048035%)" offset="0.890625"/><stop stop-opacity="1" stop-color="rgb(97.521973%, 89.559937%, 57.28302%)" offset="0.898438"/><stop stop-opacity="1" stop-color="rgb(97.558594%, 89.759827%, 57.519531%)" offset="0.90625"/><stop stop-opacity="1" stop-color="rgb(97.593689%, 89.958191%, 57.754517%)" offset="0.914062"/><stop stop-opacity="1" stop-color="rgb(97.63031%, 90.158081%, 57.989502%)" offset="0.921875"/><stop stop-opacity="1" stop-color="rgb(97.665405%, 90.356445%, 58.224487%)" offset="0.929688"/><stop stop-opacity="1" stop-color="rgb(97.702026%, 90.556335%, 58.459473%)" offset="0.9375"/><stop stop-opacity="1" stop-color="rgb(97.738647%, 90.756226%, 58.694458%)" offset="0.945312"/><stop stop-opacity="1" stop-color="rgb(97.773743%, 90.95459%, 58.929443%)" offset="0.953125"/><stop stop-opacity="1" stop-color="rgb(97.810364%, 91.15448%, 59.165955%)" offset="0.960938"/><stop stop-opacity="1" stop-color="rgb(97.845459%, 91.352844%, 59.40094%)" offset="0.96875"/><stop stop-opacity="1" stop-color="rgb(97.88208%, 91.552734%, 59.635925%)" offset="0.976563"/><stop stop-opacity="1" stop-color="rgb(97.918701%, 91.751099%, 59.870911%)" offset="0.984375"/><stop stop-opacity="1" stop-color="rgb(97.953796%, 91.950989%, 60.105896%)" offset="0.992188"/><stop stop-opacity="1" stop-color="rgb(97.98584%, 92.124939%, 60.310364%)" offset="1"/></linearGradient></defs><rect x="-37.5" width="450" fill="#ffffff" y="-37.499999" height="449.999989" fill-opacity="1"/><rect x="-37.5" width="450" fill="#000000" y="-37.499999" height="449.999989" fill-opacity="1"/><g clip-path="url(#4091487d7a)"><g clip-path="url(#6d94d2b11f)"><path fill="url(#1cd5cf144a)" d="M 89.679688 62.789062 L 89.679688 227.035156 L 285.171875 227.035156 L 285.171875 62.789062 Z M 89.679688 62.789062 " fill-rule="nonzero"/></g></g><g fill="#ffffff" fill-opacity="1"><g transform="translate(99.914753, 281.23485)"><g><path d="M 21.828125 -7.953125 L 21.828125 0 L 0.8125 0 L 0.8125 -1.375 L 13.875 -25.9375 C 10.507812 -24.757812 6.945312 -23.226562 3.1875 -21.34375 L 3.109375 -19.328125 L 1.53125 -19.28125 L 1.53125 -27.03125 L 21.296875 -27.03125 L 21.296875 -25.25 L 8.46875 -1.046875 C 12.257812 -2.304688 16.160156 -3.921875 20.171875 -5.890625 L 20.25 -7.90625 Z M 21.828125 -7.953125 "/></g></g></g><g fill="#ffffff" fill-opacity="1"><g transform="translate(122.341544, 281.23485)"><g><path d="M 14.484375 -27.640625 C 17.117188 -27.640625 19.425781 -27.125 21.40625 -26.09375 C 23.382812 -25.070312 24.914062 -23.566406 26 -21.578125 C 27.09375 -19.585938 27.640625 -17.15625 27.640625 -14.28125 C 27.640625 -12.445312 27.316406 -10.554688 26.671875 -8.609375 C 26.023438 -6.660156 25.082031 -4.929688 23.84375 -3.421875 C 22.550781 -2.210938 21.070312 -1.238281 19.40625 -0.5 C 17.738281 0.238281 15.960938 0.609375 14.078125 0.609375 C 11.472656 0.609375 9.179688 0.0976562 7.203125 -0.921875 C 5.222656 -1.953125 3.6875 -3.460938 2.59375 -5.453125 C 1.507812 -7.441406 0.96875 -9.875 0.96875 -12.75 C 0.96875 -14.550781 1.300781 -16.429688 1.96875 -18.390625 C 2.644531 -20.359375 3.601562 -22.09375 4.84375 -23.59375 C 6.101562 -24.8125 7.5625 -25.789062 9.21875 -26.53125 C 10.875 -27.269531 12.628906 -27.640625 14.484375 -27.640625 Z M 8.15625 -15.578125 C 8.15625 -12.453125 8.554688 -9.929688 9.359375 -8.015625 C 10.160156 -6.109375 11.378906 -4.707031 13.015625 -3.8125 C 14.660156 -2.914062 16.789062 -2.398438 19.40625 -2.265625 C 19.726562 -3.609375 19.988281 -5.1875 20.1875 -7 C 20.394531 -8.8125 20.5 -10.296875 20.5 -11.453125 C 20.5 -14.597656 20.085938 -17.132812 19.265625 -19.0625 C 18.441406 -20.988281 17.195312 -22.40625 15.53125 -23.3125 C 13.863281 -24.226562 11.738281 -24.742188 9.15625 -24.859375 C 8.863281 -23.453125 8.625 -21.820312 8.4375 -19.96875 C 8.25 -18.113281 8.15625 -16.648438 8.15625 -15.578125 Z M 8.15625 -15.578125 "/></g></g></g><g fill="#ffffff" fill-opacity="1"><g transform="translate(150.939732, 281.23485)"><g><path d="M 26.5 -25.578125 L 26.5 -1.453125 L 28.484375 -1.40625 L 28.484375 0 L 17.828125 0 L 17.828125 -1.40625 L 19.8125 -1.453125 L 19.8125 -12.671875 L 10.765625 -12.671875 L 10.765625 -1.453125 L 12.75 -1.40625 L 12.75 0 L 2.09375 0 L 2.09375 -1.40625 L 4.078125 -1.453125 L 4.078125 -25.578125 L 2.09375 -25.625 L 2.09375 -27.03125 L 12.75 -27.03125 L 12.75 -25.625 L 10.765625 -25.578125 L 10.765625 -14.15625 L 19.8125 -14.15625 L 19.8125 -25.578125 L 17.828125 -25.625 L 17.828125 -27.03125 L 28.484375 -27.03125 L 28.484375 -25.625 Z M 26.5 -25.578125 "/></g></g></g><g fill="#ffffff" fill-opacity="1"><g transform="translate(180.223628, 281.23485)"><g><path d="M 27.359375 -1.40625 L 27.359375 0 L 15.203125 0 L 15.203125 -1.40625 L 17.1875 -1.453125 L 15.328125 -8.0625 L 8.46875 -8.0625 L 7.140625 -1.453125 L 9.203125 -1.40625 L 9.203125 0 L 0.078125 0 L 0.078125 -1.40625 L 2.0625 -1.453125 L 11.09375 -26.703125 L 16.09375 -27.390625 L 25.375 -1.453125 Z M 14.890625 -9.5625 L 11.34375 -22.1875 L 8.796875 -9.5625 Z M 14.890625 -9.5625 "/></g></g></g><g fill="#ffffff" fill-opacity="1"><g transform="translate(207.248711, 281.23485)"><g><path d="M 1.453125 -1.40625 L 3.421875 -1.453125 L 3.421875 -25.578125 L 1.453125 -25.625 L 1.453125 -27.03125 L 12.109375 -27.03125 L 12.109375 -25.625 L 10.125 -25.578125 L 10.125 -1.453125 L 12.109375 -1.40625 L 12.109375 0 L 1.453125 0 Z M 1.453125 -1.40625 "/></g></g></g><g fill="#ffffff" fill-opacity="1"><g transform="translate(220.801593, 281.23485)"><g><path d="M 18.4375 -14 C 19.863281 -14 21.078125 -13.707031 22.078125 -13.125 C 23.085938 -12.550781 23.847656 -11.804688 24.359375 -10.890625 C 24.878906 -9.972656 25.140625 -9.003906 25.140625 -7.984375 C 25.140625 -5.484375 24.066406 -3.523438 21.921875 -2.109375 C 19.785156 -0.703125 16.660156 0 12.546875 0 L 1.453125 0 L 1.453125 -1.40625 L 3.421875 -1.453125 L 3.421875 -25.578125 L 1.453125 -25.625 L 1.453125 -27.03125 L 9.234375 -26.953125 L 15.125 -27.4375 C 17.707031 -27.4375 19.679688 -26.875 21.046875 -25.75 C 22.421875 -24.632812 23.109375 -23.164062 23.109375 -21.34375 C 23.109375 -19.625 22.53125 -18.140625 21.375 -16.890625 C 20.21875 -15.640625 18.523438 -14.632812 16.296875 -13.875 Z M 15.9375 -19.8125 C 15.9375 -21.71875 15.441406 -23.160156 14.453125 -24.140625 C 13.472656 -25.128906 12.03125 -25.625 10.125 -25.625 L 10.125 -14 C 12.09375 -14.132812 13.550781 -14.675781 14.5 -15.625 C 15.457031 -16.582031 15.9375 -17.976562 15.9375 -19.8125 Z M 10.125 -1.40625 C 12.863281 -1.40625 14.851562 -1.835938 16.09375 -2.703125 C 17.332031 -3.566406 17.953125 -4.9375 17.953125 -6.8125 C 17.953125 -8.695312 17.394531 -10.125 16.28125 -11.09375 C 15.164062 -12.0625 13.519531 -12.546875 11.34375 -12.546875 L 10.125 -12.546875 Z M 10.125 -1.40625 "/></g></g></g><g fill="#ffffff" fill-opacity="1"><g transform="translate(246.414923, 281.23485)"><g><path d="M 6.140625 -26.109375 L 2.140625 -20.0625 L 0.09375 -21.03125 L 3.671875 -28.25 Z M 6.140625 -26.109375 "/></g></g></g><g fill="#ffffff" fill-opacity="1"><g transform="translate(252.82834, 281.23485)"><g><path d="M 8.75 -22.75 C 8.75 -21.894531 8.988281 -21.101562 9.46875 -20.375 C 9.957031 -19.644531 10.566406 -19 11.296875 -18.4375 C 12.023438 -17.875 13.019531 -17.175781 14.28125 -16.34375 C 15.757812 -15.375 16.941406 -14.519531 17.828125 -13.78125 C 18.710938 -13.039062 19.472656 -12.148438 20.109375 -11.109375 C 20.742188 -10.078125 21.0625 -8.914062 21.0625 -7.625 C 21.0625 -6.195312 20.671875 -4.859375 19.890625 -3.609375 C 19.109375 -2.359375 17.9375 -1.34375 16.375 -0.5625 C 14.820312 0.21875 12.941406 0.609375 10.734375 0.609375 C 5.992188 0.609375 2.628906 -1.273438 0.640625 -5.046875 L 5.203125 -8.546875 C 6.492188 -5.890625 7.945312 -3.3125 9.5625 -0.8125 L 9.609375 -0.8125 C 10.378906 -0.8125 11.097656 -1.019531 11.765625 -1.4375 C 12.441406 -1.851562 12.984375 -2.394531 13.390625 -3.0625 C 13.796875 -3.738281 14 -4.453125 14 -5.203125 C 14 -6.015625 13.765625 -6.757812 13.296875 -7.4375 C 12.828125 -8.125 12.238281 -8.726562 11.53125 -9.25 C 10.832031 -9.78125 9.878906 -10.421875 8.671875 -11.171875 C 7.222656 -12.085938 6.050781 -12.894531 5.15625 -13.59375 C 4.269531 -14.289062 3.507812 -15.144531 2.875 -16.15625 C 2.25 -17.164062 1.9375 -18.328125 1.9375 -19.640625 C 1.9375 -21.117188 2.359375 -22.46875 3.203125 -23.6875 C 4.054688 -24.914062 5.269531 -25.878906 6.84375 -26.578125 C 8.414062 -27.285156 10.265625 -27.640625 12.390625 -27.640625 C 14.453125 -27.640625 16.148438 -27.304688 17.484375 -26.640625 C 18.816406 -25.984375 20.019531 -25.050781 21.09375 -23.84375 L 16.859375 -19.5625 C 15.429688 -21.925781 13.992188 -24.144531 12.546875 -26.21875 C 11.335938 -26.21875 10.398438 -25.890625 9.734375 -25.234375 C 9.078125 -24.578125 8.75 -23.75 8.75 -22.75 Z M 8.75 -22.75 "/></g></g></g><g fill="#ffffff" fill-opacity="1"><g transform="translate(123.963336, 307.662313)"><g><path d="M 1.671875 -0.578125 L 1.671875 -15.546875 C 1.671875 -15.867188 1.875 -16.046875 2.28125 -16.078125 L 6.34375 -16.078125 C 7.71875 -16.078125 8.816406 -15.703125 9.640625 -14.953125 C 10.460938 -14.210938 10.875 -13.035156 10.875 -11.421875 L 10.875 -11.203125 C 10.875 -9.585938 10.457031 -8.398438 9.625 -7.640625 C 8.789062 -6.890625 7.679688 -6.515625 6.296875 -6.515625 L 3.125 -6.515625 L 3.125 -0.578125 C 3.125 -0.398438 3.050781 -0.257812 2.90625 -0.15625 C 2.757812 -0.0507812 2.585938 0 2.390625 0 C 2.191406 0 2.019531 -0.0507812 1.875 -0.15625 C 1.738281 -0.257812 1.671875 -0.398438 1.671875 -0.578125 Z M 3.125 -7.765625 L 6.296875 -7.765625 C 7.285156 -7.765625 8.050781 -8.039062 8.59375 -8.59375 C 9.144531 -9.15625 9.421875 -10 9.421875 -11.125 L 9.421875 -11.390625 C 9.421875 -13.617188 8.378906 -14.734375 6.296875 -14.734375 L 3.125 -14.734375 Z M 3.125 -7.765625 "/></g></g></g><g fill="#ffffff" fill-opacity="1"><g transform="translate(139.427269, 307.662313)"><g><path d="M 1.5 -4.578125 L 1.5 -11.390625 C 1.5 -13.003906 1.910156 -14.1875 2.734375 -14.9375 C 3.566406 -15.695312 4.675781 -16.078125 6.0625 -16.078125 C 7.457031 -16.078125 8.566406 -15.695312 9.390625 -14.9375 C 10.222656 -14.1875 10.640625 -13.003906 10.640625 -11.390625 L 10.640625 -4.578125 C 10.640625 -2.953125 10.222656 -1.757812 9.390625 -1 C 8.566406 -0.25 7.457031 0.125 6.0625 0.125 C 4.675781 0.125 3.566406 -0.25 2.734375 -1 C 1.910156 -1.757812 1.5 -2.953125 1.5 -4.578125 Z M 2.953125 -4.578125 C 2.953125 -2.328125 3.992188 -1.203125 6.078125 -1.203125 C 8.160156 -1.203125 9.203125 -2.328125 9.203125 -4.578125 L 9.203125 -11.390625 C 9.203125 -13.617188 8.160156 -14.734375 6.078125 -14.734375 C 3.992188 -14.734375 2.953125 -13.617188 2.953125 -11.390625 Z M 2.953125 -4.578125 "/></g></g></g><g fill="#ffffff" fill-opacity="1"><g transform="translate(155.441101, 307.662313)"><g><path d="M 1.671875 -0.578125 L 1.671875 -15.546875 C 1.671875 -15.867188 1.851562 -16.046875 2.21875 -16.078125 L 6.109375 -16.078125 C 7.535156 -16.078125 8.6875 -15.738281 9.5625 -15.0625 C 10.4375 -14.394531 10.875 -13.289062 10.875 -11.75 C 10.875 -9.3125 9.726562 -7.894531 7.4375 -7.5 L 10.828125 -0.984375 C 10.878906 -0.910156 10.90625 -0.816406 10.90625 -0.703125 C 10.90625 -0.515625 10.816406 -0.34375 10.640625 -0.1875 C 10.472656 -0.03125 10.285156 0.046875 10.078125 0.046875 C 9.816406 0.046875 9.5625 -0.207031 9.3125 -0.71875 L 5.921875 -7.328125 L 3.125 -7.328125 L 3.125 -0.578125 C 3.125 -0.398438 3.050781 -0.257812 2.90625 -0.15625 C 2.757812 -0.0507812 2.585938 0 2.390625 0 C 2.191406 0 2.019531 -0.0507812 1.875 -0.15625 C 1.738281 -0.257812 1.671875 -0.398438 1.671875 -0.578125 Z M 3.125 -8.578125 L 6.109375 -8.578125 C 8.316406 -8.578125 9.421875 -9.613281 9.421875 -11.6875 C 9.421875 -13.71875 8.316406 -14.734375 6.109375 -14.734375 L 3.125 -14.734375 Z M 3.125 -8.578125 "/></g></g></g><g fill="#ffffff" fill-opacity="1"><g transform="translate(170.949026, 307.662313)"><g><path d="M 0.328125 -15.40625 C 0.328125 -15.570312 0.375 -15.722656 0.46875 -15.859375 C 0.5625 -16.003906 0.695312 -16.078125 0.875 -16.078125 L 9.703125 -16.078125 C 9.878906 -16.078125 10.015625 -16.007812 10.109375 -15.875 C 10.203125 -15.75 10.25 -15.597656 10.25 -15.421875 C 10.25 -15.234375 10.203125 -15.066406 10.109375 -14.921875 C 10.015625 -14.785156 9.878906 -14.71875 9.703125 -14.71875 L 6.03125 -14.71875 L 6.03125 -0.578125 C 6.03125 -0.398438 5.957031 -0.257812 5.8125 -0.15625 C 5.664062 -0.0507812 5.492188 0 5.296875 0 C 5.097656 0 4.925781 -0.0507812 4.78125 -0.15625 C 4.644531 -0.257812 4.578125 -0.398438 4.578125 -0.578125 L 4.578125 -14.71875 L 0.875 -14.71875 C 0.71875 -14.71875 0.585938 -14.78125 0.484375 -14.90625 C 0.378906 -15.039062 0.328125 -15.207031 0.328125 -15.40625 Z M 0.328125 -15.40625 "/></g></g></g><g fill="#ffffff" fill-opacity="1"><g transform="translate(185.401139, 307.662313)"><g><path d="M 1.671875 -0.546875 L 1.671875 -15.53125 C 1.671875 -15.707031 1.734375 -15.84375 1.859375 -15.9375 C 1.992188 -16.03125 2.148438 -16.078125 2.328125 -16.078125 L 10.125 -16.078125 C 10.300781 -16.078125 10.4375 -16.015625 10.53125 -15.890625 C 10.625 -15.765625 10.671875 -15.613281 10.671875 -15.4375 C 10.671875 -15.25 10.625 -15.082031 10.53125 -14.9375 C 10.4375 -14.800781 10.300781 -14.734375 10.125 -14.734375 L 3.125 -14.734375 L 3.125 -8.6875 L 6.59375 -8.6875 C 6.757812 -8.6875 6.890625 -8.625 6.984375 -8.5 C 7.078125 -8.375 7.125 -8.21875 7.125 -8.03125 C 7.125 -7.632812 6.945312 -7.4375 6.59375 -7.4375 L 3.125 -7.4375 L 3.125 -0.546875 C 3.125 -0.367188 3.050781 -0.234375 2.90625 -0.140625 C 2.757812 -0.046875 2.585938 0 2.390625 0 C 1.910156 0 1.671875 -0.179688 1.671875 -0.546875 Z M 1.671875 -0.546875 "/></g></g></g><g fill="#ffffff" fill-opacity="1"><g transform="translate(200.139195, 307.662313)"><g><path d="M 1.5 -4.578125 L 1.5 -11.390625 C 1.5 -13.003906 1.910156 -14.1875 2.734375 -14.9375 C 3.566406 -15.695312 4.675781 -16.078125 6.0625 -16.078125 C 7.457031 -16.078125 8.566406 -15.695312 9.390625 -14.9375 C 10.222656 -14.1875 10.640625 -13.003906 10.640625 -11.390625 L 10.640625 -4.578125 C 10.640625 -2.953125 10.222656 -1.757812 9.390625 -1 C 8.566406 -0.25 7.457031 0.125 6.0625 0.125 C 4.675781 0.125 3.566406 -0.25 2.734375 -1 C 1.910156 -1.757812 1.5 -2.953125 1.5 -4.578125 Z M 2.953125 -4.578125 C 2.953125 -2.328125 3.992188 -1.203125 6.078125 -1.203125 C 8.160156 -1.203125 9.203125 -2.328125 9.203125 -4.578125 L 9.203125 -11.390625 C 9.203125 -13.617188 8.160156 -14.734375 6.078125 -14.734375 C 3.992188 -14.734375 2.953125 -13.617188 2.953125 -11.390625 Z M 2.953125 -4.578125 "/></g></g></g><g fill="#ffffff" fill-opacity="1"><g transform="translate(216.153026, 307.662313)"><g><path d="M 1.671875 -0.578125 L 1.671875 -15.546875 C 1.671875 -15.898438 1.910156 -16.078125 2.390625 -16.078125 C 2.878906 -16.078125 3.125 -15.898438 3.125 -15.546875 L 3.125 -1.34375 L 9.390625 -1.34375 C 9.710938 -1.34375 9.875 -1.125 9.875 -0.6875 C 9.875 -0.226562 9.710938 0 9.390625 0 L 2.328125 0 C 2.148438 0 1.992188 -0.0507812 1.859375 -0.15625 C 1.734375 -0.257812 1.671875 -0.398438 1.671875 -0.578125 Z M 1.671875 -0.578125 "/></g></g></g><g fill="#ffffff" fill-opacity="1"><g transform="translate(230.209213, 307.662313)"><g><path d="M 1.671875 -0.578125 L 1.671875 -15.546875 C 1.671875 -15.898438 1.910156 -16.078125 2.390625 -16.078125 C 2.878906 -16.078125 3.125 -15.898438 3.125 -15.546875 L 3.125 -0.578125 C 3.125 -0.398438 3.050781 -0.257812 2.90625 -0.15625 C 2.757812 -0.0507812 2.585938 0 2.390625 0 C 2.191406 0 2.019531 -0.0507812 1.875 -0.15625 C 1.738281 -0.257812 1.671875 -0.398438 1.671875 -0.578125 Z M 1.671875 -0.578125 "/></g></g></g><g fill="#ffffff" fill-opacity="1"><g transform="translate(238.87635, 307.662313)"><g><path d="M 1.5 -4.578125 L 1.5 -11.390625 C 1.5 -13.003906 1.910156 -14.1875 2.734375 -14.9375 C 3.566406 -15.695312 4.675781 -16.078125 6.0625 -16.078125 C 7.457031 -16.078125 8.566406 -15.695312 9.390625 -14.9375 C 10.222656 -14.1875 10.640625 -13.003906 10.640625 -11.390625 L 10.640625 -4.578125 C 10.640625 -2.953125 10.222656 -1.757812 9.390625 -1 C 8.566406 -0.25 7.457031 0.125 6.0625 0.125 C 4.675781 0.125 3.566406 -0.25 2.734375 -1 C 1.910156 -1.757812 1.5 -2.953125 1.5 -4.578125 Z M 2.953125 -4.578125 C 2.953125 -2.328125 3.992188 -1.203125 6.078125 -1.203125 C 8.160156 -1.203125 9.203125 -2.328125 9.203125 -4.578125 L 9.203125 -11.390625 C 9.203125 -13.617188 8.160156 -14.734375 6.078125 -14.734375 C 3.992188 -14.734375 2.953125 -13.617188 2.953125 -11.390625 Z M 2.953125 -4.578125 "/></g></g></g></svg>